<?xml version="1.0" encoding="UTF-8"?>
<svg id="Capa_1" data-name="Capa 1" xmlns="http://www.w3.org/2000/svg" viewBox="0 0 300 300">
  <path d="M148.1384,88.5774c2.3384-2.2398,3.8734-5.0819,5.6205-7.7418,1.0166-1.5477,2.1117-2.0945,3.9121-2.0425,4.1731,.1207,8.3603,.1958,12.5257-.0208,2.4821-.1291,2.9896,.7097,2.9839,3.0609-.0783,32.0209-.0526,64.042-.0526,96.0631,0,12.9584-.0562,25.9172,.0506,38.8747,.0198,2.3985-.4434,3.392-3.1101,3.2874-5.4534-.2139-10.9273-.2193-16.3801,.0022-2.6765,.1087-3.1052-.8929-3.0992-3.2776,.0733-29.1294,.0477-58.259,.0477-87.3885,0-.9368,0-1.8736,0-3.4609-1.8459,1.9439-2.939,3.6589-3.8241,5.5292-6.6165,9.6984-13.2422,19.3905-19.8452,29.0981-3.0044,4.417-5.9642,8.8643-8.9425,13.299-.2977,.4432-.5391,.9322-.8825,1.3354-1.801,2.1142-13.1533,1.4507-14.7189-.8705-10.4557-15.5012-20.9001-31.0101-31.3548-46.512-.1722-.2553-.4279-.4543-.6446-.6795-.1537-.6773-.6219-1.0528-.8765-.2306-.2731,.8821-.0949,1.9073-.0949,2.87-.002,28.8974-.0402,57.795,.0606,86.6921,.0096,2.7536-.568,3.7346-3.4964,3.5956-5.3392-.2535-10.7032-.1892-16.0487-.0115-2.3864,.0793-3.0844-.5791-3.0645-3.0197,.1172-14.3407,.0575-28.6829,.0575-43.0246,0-30.6099,.0329-61.2199-.0591-91.8295-.0078-2.5999,.5258-3.5512,3.2988-3.4084,5.0173,.2583,10.0551,.12,15.0843,.1472,14.8578,21.935,29.7155,43.8699,44.8303,66.1843,3.723-5.4631,7.26-10.6416,10.7849-15.8283,8.7736-12.9097,17.5432-25.8221,26.3072-38.7383,.4061-.5985,1.0502-1.0991,.9307-1.954Z" fill="#fefefe"/>
  <path d="M33.0414,150.0209c0,22.8101-.0373,45.6203,.0541,68.43,.0098,2.4511-.514,3.3013-3.1274,3.2138-6.2042-.2079-12.4243-.1997-18.6291-.0007-2.4775,.0794-2.9928-.6865-2.986-3.0355,.0802-27.9502,.0516-55.9006,.0516-83.851,0-17.7769,.0367-35.5539-.0453-53.3304-.0105-2.2742,.414-3.1942,2.962-3.111,6.2045,.2026,12.425,.2095,18.629-.0008,2.6483-.0897,3.1517,.8155,3.1424,3.2555-.0867,22.8097-.0514,45.62-.0514,68.43Z" fill="#fefefe"/>
  <path d="M271.6235,142.2333c.3636-.4102,.6804-.8324,1.0607-1.1866,8.7856-8.1827,11.718-18.2477,9.8458-29.9662-2.5173-15.7558-13.6863-27.9766-28.7477-31.2488-6.0155-1.3068-12.1412-.6874-18.2138-1h-44.9825q-4.391,.2313-4.3911,4.7849c0,28.7509,.0097,57.5019-.0037,86.2528-.0077,16.565-.0528,33.13-.0811,49.6951,.8964,.518,1.8668,.4672,2.8285,.4325,.1923-.0151,.3838-.0276,.5722-.0273,18.5519,.0269,37.104,.0231,55.6561,.0095,1.8403-.0009,3.6806,.0009,5.5209-.0002,1.5956-.0009,3.191-.1021,4.7865-.1568,18.9605-2.9553,31.5991-14.7362,35.1964-33.1535,3.3989-17.4015-1.8693-35.2696-19.0471-44.4353Zm-62.9825-38.8984c-.0237-2.0811,.528-2.7568,2.6718-2.7039,5.8778,.1449,11.7614,.05,17.6426,.0495,4.812-.0004,9.6443,.2861,14.432-.0551,13.3965-.9546,18.203,11.1368,16.2198,20.5029-1.8308,8.6462-7.2366,12.962-16.07,12.9661-10.5863,.0049-21.1741-.0923-31.758,.0673-2.6181,.0395-3.1851-.7811-3.1483-3.2395,.1378-9.1942,.1144-18.3923,.01-27.5874Zm56.1815,87.4144c-3.431,4.7266-8.135,7.1351-13.9868,7.1699-6.4196,.0382-12.8396,.0087-19.2594,.0085-6.8478-.0002-13.6963-.0522-20.543,.0353-1.7842,.0228-2.3968-.4655-2.3855-2.3286,.0753-12.3044,.0564-24.6094,.0169-36.914-.0049-1.5184,.2388-2.3791,2.0605-2.3659,13.3714,.0968,26.7541-.1964,40.1115,.2649,10.3453,.3573,17.0605,7.3417,18.0746,17.708,.5802,5.93-.5303,11.5196-4.0889,16.422Z" fill="#fefefe"/>
</svg>