<?xml version="1.0" encoding="UTF-8"?>
<svg id="Capa_1" data-name="Capa 1" xmlns="http://www.w3.org/2000/svg" viewBox="0 0 381.232163 308.25">
  <path d="M189.91933,121.999476l-.042668-.255747c0-.59683,0-1.236067-.042668-1.832897,.042668,.681905,.085336,1.364071,.085336,2.088644Z" fill="none" stroke="#fff" stroke-linecap="round" stroke-miterlimit="10" stroke-width="9"/>
  <path d="M150.490036,88.154344c1.619797-.298384,3.324847-.426262,5.029897-.426262h.298384c15.004437-.042626,27.707057,9.633531,32.225439,23.018171" fill="none" stroke="#fff" stroke-linecap="round" stroke-miterlimit="10" stroke-width="9"/>
  <path d="M145.843775,89.177374c-3.665857,1.065656-7.075956,2.770706-10.102419,4.98727" fill="none" stroke="#fff" stroke-linecap="round" stroke-miterlimit="10" stroke-width="9"/>
  <path d="M131.478732,97.787875c.34101-.426262,.767272-.809899,1.193535-1.150909" fill="none" stroke="#fff" stroke-linecap="round" stroke-miterlimit="10" stroke-width="9"/>
  <path d="M122.264128,235.933078c-2.669641-20.032961-4.498801-40.186149-5.004516-60.374062-.088806-6.712806,.100586-13.428291-.169953-20.139305-.121711-2.496681,1.818572-4.618626,4.316773-4.71794,2.594357-.115382,4.767222,2.036209,4.682792,4.630381-.097512,3.357761-.00457,6.713688,.043083,10.070042,.564868,23.515943-1.185154,47.174464-3.868179,70.530884h0Z" fill="#fff"/>
  <path d="M189.858996,121.999675c.010802,5.380894-1.207554,10.766625-3.69112,15.613696-2.407836,4.699274-5.910857,8.817534-10.159471,11.952361-3.877999,2.86137-9.212685,5.826403-14.149272,5.817499-10.648789-.019206-21.297713-.007335-31.946545-.007335h-8.323248v-33.674835c0-2.983889,.383751-5.882442,1.065656-8.652992,.255747-.937913,.554162-1.875565,.895245-2.813478,.042668-.085076,.085336-.127743,.085336-.213079,.38349-.98032,.767241-1.918233,1.193399-2.855885,.255747-.511494,.511494-.98032,.767241-1.449407,.255747-.468826,.511494-.98032,.809909-1.449147,1.406739-2.344391,3.111893-4.561039,5.072533-6.479272,.383751-.383751,.767241-.767241,1.19366-1.150992,.38349-.38349,.809909-.767241,1.278735-1.108064,.554162-.469086,1.150992-.937913,1.790229-1.364071,3.069225-2.17398,6.479272-3.879134,10.102399-4.987458,1.449407-.468826,2.983889-.809909,4.518371-1.022988,.042668-.042668,.085336-.042668,.128004,0,1.705151-.255747,3.45271-.38349,5.200269-.38349,10.965869-.000002,21.458959,5.372849,27.850019,14.287996,4.171046,5.818359,6.304468,12.87548,6.318652,19.940939Z" fill="none" stroke="#fff" stroke-linecap="round" stroke-miterlimit="10" stroke-width="9"/>
  <path d="M121.589446,159.875934c-1.455983-.46735-3.615579-.466449-5.136445-.697947-.000014,.000102-5.136489-.549856-5.136489-.549856-9.950538-1.065378-20.91949-2.259735-30.818748-3.252195,12.548368-1.262179,25.954014-2.740747,38.523435-4.077145,.856089-.123953,1.712168-.09136,2.568247-.422857,2.485275-.962387,5.280167,.272171,6.242538,2.757446,1.573554,3.813402-2.480902,7.803214-6.242538,6.242554h0Z" fill="#fff"/>
  <path d="M159.121916,153.426837s34.659103,68.670792,34.659103,68.670792c0,0-8.055664,.889526-8.055664,.889526,1.256233-4.684194,18.127974-73.454549,19.147914-75.591251,5.235621-17.74018,13.72817-46.073631,19.017875-63.959255,.831281,2.778937,10.289965,34.564329,11.404853,38.29925,1.619277,5.463477,5.670822,19.139719,7.230794,24.403422,.777758,2.718012,1.686426,5.402735,2.26771,8.170679l-4.19249-3.26004c10.332823,.001089,37.059342-.00046,47.064799,.000216,3.373-.33468,6.67554,1.752488,7.324061,5.193736,.333395,1.582688-.023165,3.243353-.804852,4.639166-2.115606,4.247941-29.432828,59.163337-32.319646,64.962582,.000005,0-5.196627,10.445221-5.196627,10.445221l-2.86924-11.308182-17.391457-68.542801,4.192764,3.26178h-85.341652c-2.389053,0-4.325745-1.936707-4.325745-4.325745,0-2.389053,1.936691-4.32576,4.325745-4.32576h88.706993l.827667,3.261978s17.391457,68.542816,17.391457,68.542816l-8.065727-.862961c2.262349-4.60963,29.920858-60.096014,31.446302-63.207195-.00012,.000377,.873385-1.755375,.873385-1.755375l.218376-.438934c.07095-.138412-.021805,.027573-.037277,.078781,0,0-.079342,.234146-.079342,.234146-.432152,1.328564,.724187,2.847018,2.10538,2.798222-.000045,.000026-.980559,.000026-.980559,.000026-11.784681,.001455-38.261691-.000931-50.281415,.000232-.000079-.000003-.97613-3.260257-.97613-3.260257-4.408257-18.758024-10.0841-47.288911-14.234865-66.358568,.000223-.000044,3.436358-.002119,3.436358-.002119l-7.109467,33.949844c-1.189906,5.676036-4.184691,19.987604-5.332079,25.462275-.054163,2.204394-18.01481,71.127405-19.055762,75.613209-.000144-.000029-2.857109,11.190065-2.857109,11.190065-1.992566-3.964021-36.697253-72.697405-39.857926-78.97135-2.40142-5.185774,4.969767-8.927069,7.723496-3.898172h0Z" fill="#fff"/>
</svg>