<?xml version="1.0" encoding="UTF-8"?>
<svg id="Capa_1" data-name="Capa 1" xmlns="http://www.w3.org/2000/svg" viewBox="0 0 300 300">
  <path d="M213.7334,192.7458c-2.4117,2.4095-4.6722,4.6375-6.8907,6.9067-.5394,.5517-1.0174,.2548-1.5081,.071-6.0079-2.2504-9.3367-6.6444-10.2802-12.9235-.2059-1.3704-.2425-2.7523-.242-4.14,.0097-27.0494,.0181-54.0989-.0247-81.1482-.0021-1.3588,.3651-1.7209,1.6891-1.6603,2.3952,.1095,4.8023,.1066,7.1979,.0015,1.3464-.0591,1.7982,.2471,1.7841,1.7145-.0807,8.4464-.0393,16.894-.0393,25.3412,0,18.0945,.0039,36.189-.0034,54.2835-.0014,3.4033,.8154,6.4743,3.3716,8.9079,1.3342,1.2702,2.9038,2.0919,4.9457,2.6459Z" fill="#fff"/>
  <path d="M240.9581,127.8947c-.0255-1.1474,.3246-1.9111,1.0187-2.5337,3.4415-3.0874,6.4994-6.5183,9.272-10.2183,1.6919-2.2578,3.1728-2.3629,5.3164-.5171,.3824,.3293,.7376,.6969,1.0672,1.0797,1.7619,2.0464,1.6111,3.4667-.6653,5.0141-4.4948,3.0554-9.0299,6.0517-13.5509,9.0684-.3703,.2471-.7126,.6052-1.2328,.2386-.8206-.5783-1.202-1.3667-1.2253-2.1317Z" fill="#fff"/>
  <path d="M36.3406,179.3322c-1.4105,1.4418-2.7804,2.9263-4.2429,4.3134-1.48,1.4036-3.7637,1.3111-5.2296-.1054-1.4416-1.393-1.6089-3.7278-.2777-5.2397,.844-.9585,1.8267-1.7948,2.7472-2.6859,2.3508,.0388,4.5943-.7591,6.9237-.8886-.1956,1.5389,.545,3.0622,.0792,4.6062Z" fill="#fff"/>
  <path d="M35.9813,168.9666c.3801-.5424,.8411-1.0038,1.3838-1.3835,3.5215-1.7709,6.5836-4.2062,9.6702-6.6178,4.1686-3.2569,8.2155-6.6669,12.0759-10.2688,2.4882-2.3216,5.3313-4.2378,7.5567-6.8756,1.0454-1.2391,2.4705-2.208,3.9018-3.0664,.3545-.2126,.7034-.4627,1.1569-.2973,.5866,1.4046,.6045,2.7398-.481,3.9402-.7242-.23-1.3253,.0259-1.9524,.3925-2.9238,1.7093-5.3932,4.0032-7.9473,6.1787-3.3198,2.8278-6.5466,5.7573-9.9683,8.474-3.5293,2.8021-6.9394,5.7533-10.5572,8.4504-1.1625,.8666-2.4488,1.2402-3.8073,1.5136-.4272,.086-.8381,.0577-1.0318-.4402Z" fill="#fff"/>
  <path d="M49.3425,173.9732c0-.6475,0-1.2949,0-1.9424,.3383-.7915,1.0211-1.3046,1.5871-1.9,4.7464-4.9927,9.6774-9.774,15.651-13.3257,1.5943-.9479,2.8528-2.3243,4.3633-3.3774,.6326,.0005,1.2652,.0011,1.8979,.0017,.5382,.5941,.0644,.9737-.2786,1.4031-1.1607,1.4534-2.7304,2.43-4.2012,3.4952-1.3641,.9879-2.805,1.8981-4.3501,2.6087-.2318,.3657-1.7152-.5986-.9163,.8624-.0415,.2328-.1209,.4663-.3223,.5888-1.7852,1.086-3.015,2.8224-4.7108,4.012-.2244,.1574-.4183,.3624-.7114,.3922-.6217,.4182-.1318,1.0961-.3744,1.6029-.397-.3637-.6744-.622-1.2054-.0109-1.5922,1.8323-3.2696,3.5942-5.1279,5.1664-.3549,.3003-.6962,.8168-1.301,.4229Z" fill="#fff"/>
  <path d="M35.9813,168.9666c1.539,.3552,2.9927-.1182,4.1295-.985,3.0244-2.3062,6.1223-4.5221,8.9318-7.1133,1.7695-1.632,3.8443-2.9319,5.6245-4.5538,1.748-1.5925,3.6557-2.985,5.3958-4.5785,2.9803-2.7294,5.9791-5.4345,9.4783-7.5078,.6044-.3581,1.229-.8165,1.7045,.1694-.2513,.4527-.6233,.7876-1.046,1.0731-4.2641,2.1068-7.6518,5.3873-11.2325,8.4058-3.4094,2.8741-6.7289,5.8548-10.2249,8.6262-.3676,.2914-.6508,.6477-.9042,1.0347-2.5638,2.423-5.3374,4.5987-8.0672,6.8293-1.4542,.717-3.0482,.9328-4.6034,1.282-.5407,.1214-1.1078,.1938-1.4072-.4688,.6641-.8142,1.3975-1.559,2.2211-2.2132Z" fill="#fff"/>
  <path d="M43.6747,160.9958c-.6086-.0199-1.2172-.0398-1.8259-.0598-.1271-.6006,.3674-.7933,.7231-1.0368,5.3103-3.6352,10.3343-7.6126,14.7734-12.2941,2.4068-2.5779,4.9005-5.069,7.476-7.4783,.6923,.41,.3648,.9598,.165,1.4521-.6324,1.5578-1.5962,2.9345-2.767,4.0975-4.4763,4.4462-9.073,8.7661-14.0619,12.6444-.9431,.7331-1.9592,1.3652-2.8624,2.1602-.4216,.371-.9437,.7814-1.6202,.5147Z" fill="#fff"/>
  <path d="M43.6747,160.9958c2.6626-1.465,4.9093-3.4912,7.2485-5.3901,1.5598-1.2662,3.2142-2.4514,4.5973-3.8925,2.7279-2.8423,5.956-5.2189,8.2119-8.4796,.5758-.8323,1.5356-1.7988,1.0889-3.1067,.7133-.936,1.5164-1.7366,2.7801-1.842-.2787,2.4633-1.2855,4.5937-3.0202,6.3511-4.5053,4.5645-9.1463,8.9831-14.1824,12.9677-.2599,.2056-.4544,.4545-.645,.7151-2.2435,2.0229-4.7276,3.7363-7.1596,5.5144-.4496,.3287-1.0349,.6694-1.6277,.1511,.7756-1.1114,1.9968-1.8189,2.7083-2.9884Z" fill="#fff"/>
  <path d="M40.9664,163.9842c1.2761,.0664,2.1505-.778,2.983-1.5017,1.7949-1.5603,3.8387-2.7783,5.6538-4.3015,2.9458-2.2692,5.6132-4.8619,8.4438-7.2612,2.029-1.7199,3.9139-3.5908,5.9225-5.3303,1.8649-1.6151,3.4588-3.5432,4.9652-5.518,.3589-.4705,.6405-1.0143,1.1814-1.324,.8365,.2876,1.3272,.9011,1.6106,1.7097-2.2121,1.3871-4.3411,2.8363-5.989,4.9509-.7966,1.0222-2.0207,1.7049-3.0221,2.5749-2.7667,2.4037-5.5345,4.8064-8.271,7.2442-3.2208,2.8692-6.597,5.5491-9.9826,8.2149-1.6082,1.2663-3.3274,2.3944-5.0245,3.5434-.6062,.4104-1.2837,.7402-2.0724,.5975,1.1178-1.2824,2.3166-2.4836,3.6013-3.5989Z" fill="#fff"/>
  <path d="M56.9758,189.4564c.222,1.7082-.1392,3.2065-1.629,4.2425-1.2804,.8903-2.6536,.9772-4.0262,.2336-1.9084-1.0338-2.2221-2.7685-1.979-4.7212,1.3183-.8033,2.8438-.6768,4.281-.8942,.9787-.148,1.9826-.5106,2.9997-.1481,.5267,.3161,.2188,.8623,.3535,1.2873Z" fill="#fff"/>
  <path d="M36.03,160.9371c-.996,.0755-2.0055,.2273-2.8599-.5028,1.2886-.9707,2.6523-1.8057,4.1384-2.4526,6.0806-2.6471,11.4028-6.3728,15.9174-11.2438,.7834-.8452,1.6081-1.6546,2.4474-2.4446,.5819-.5477,.8768-1.1673,.7703-1.9653-.0043-.2813-.0057-.5617-.014-.8429-.013-.3662,.0129-.7318-.0125-1.0975-.0137-.5267,.015-1.0529-.0015-1.5795-.0129-.5338,.0066-1.0671,.0165-1.6009,.0749-.4323-.0691-.9722,.5515-1.1399-.002,2.6734-.004,5.3467-.006,8.02-.0916,.4533,.026,.9202-.089,1.3722-.9543,1.9957-2.8475,3.1171-4.3774,4.5441-3.7113,3.4614-7.7663,6.4972-12.2612,8.8969-1.3773,.7353-2.8273,1.3283-4.2198,2.0366Z" fill="#fff"/>
  <path d="M70.944,153.4278c-1.2975,1.8573-3.1782,3.0261-5.0355,4.2052-3.1772,2.0169-6.1367,4.3144-8.8938,6.8657-2.6306,2.4342-4.96,5.1786-7.6721,7.5321,0-.5542-.0001-1.1085-.0002-1.6628,.6169-1.4353,1.7747-2.4496,2.8722-3.4635,3.4039-3.1448,6.6141-6.5212,10.4861-9.1248,2.0568-1.3831,4.1298-2.7394,6.0191-4.3523,.7414,.0001,1.4829,.0002,2.2243,.0003Z" fill="#fff"/>
  <path d="M36.03,160.9371c1.1883-1.4806,3.0862-1.7412,4.6149-2.6393,3.5623-2.0928,6.9492-4.3965,10.0402-7.1431,2.0857-1.8533,4.2042-3.6683,6.1045-5.7182,.3125,1.1199,.2841,2.138-.6882,2.9862-3.5995,3.1401-7.0896,6.415-11.0616,9.0976-1.9001,1.2833-3.7908,2.599-5.962,3.4164-1.0159,.0002-2.0319,.0003-3.0478,.0005Z" fill="#fff"/>
  <path d="M56.7902,141.564c0,.2763,0,.5526,.0001,.829-.3005,.7826-.7835,1.425-1.3731,2.0275-2.6055,2.6622-5.3104,5.212-8.1866,7.583-3.0151,2.4855-6.4469,4.2099-10.0525,5.6316-1.2852,.5068-2.4618,1.2457-3.7477,1.7483-.4037,.1578-.7886,.5473-1.2717,.1795-.7075-.6864-.9422-1.5301-.8279-2.4898,.3429-.3392,.7849-.4605,1.2373-.5417,2.9781-.5343,5.8587-1.3808,8.5771-2.7235,.7551-.3729,1.5769-.3973,2.3651-.5937l.0078-.0159c1.7353-1.2901,3.4378-2.6158,5.0906-4.0165,2.4372-2.0654,4.4825-4.5017,6.7267-6.748,.3977-.3981,.7139-1.0125,1.4547-.8698Z" fill="#fff"/>
  <path d="M49.3118,166.7976c-.8044,.1359-1.1543,.853-1.667,1.3431-1.757,1.6797-3.4768,3.3984-5.2108,5.1022-.5774-.6272-.2972-1.2295,.1635-1.7036,.8344-.8584,1.5453-1.811,2.2828-2.7446,1.3695-1.2242,2.7458-2.4407,4.0758-3.7117,3.7271-3.5619,7.6934-6.8525,11.6509-10.1513,.7047-.5874,1.4713-1.1011,2.3027-1.505,.5516,.0003,1.1032,.0006,1.6549,.0009,.4158,.7688-.2081,1.1061-.6626,1.4303-3.3388,2.3815-6.4493,5.0436-9.5903,7.6721-1.3428,1.1237-2.3375,2.6103-3.8392,3.5565-.3841,.242-.6721,.6385-1.1606,.711Z" fill="#fff"/>
  <path d="M49.3419,125.2111c-.0116-.5976-.0774-1.2001-.0248-1.792,.1677-1.8872,1.6634-3.3344,3.5297-3.4686,1.9741-.142,3.5223,1.0344,3.9856,3.0282,.1376,.2227,.1278,.4431-.01,.6618-.452,.512-1.0917,.6389-1.7038,.7938-1.2347,.3124-2.4797,.5781-3.6975,.9633-.6944,.2197-1.4299,.352-2.0792-.1865Z" fill="#fff"/>
  <path d="M80.9422,154.0092c1.5819,1.1863,2.1265,2.7276,1.5639,4.4256-.531,1.6023-1.937,2.5525-3.8357,2.5556-1.2853,.0021-2.5707-.0351-3.856-.0547-.3648-.6976,.1582-1.0816,.6078-1.3163,1.5885-.8291,2.5453-2.1587,3.4229-3.6708,.4551-.7842,.8616-1.8861,2.0971-1.9395Z" fill="#fff"/>
  <path d="M33.7602,171.1798c1.7685,.4419,3.3357-.411,4.9717-.7956,.3902-.0917,.7478-.3275,1.1745-.2898,.1612,.6777-.4129,.9589-.7557,1.3447-.4008,.451-.7311,.9304-.9252,1.5021-.4796,.7863-1.0227,1.5083-1.9208,1.8632-1.6898,.6094-3.454,.8754-5.2235,1.0981-.5927,.0746-1.2032,.0534-1.7434-.2879,1.3864-1.5658,2.8744-3.0303,4.4225-4.4348Z" fill="#fff"/>
  <path d="M56.7882,188.3788c-2.4822,.2775-4.9644,.555-7.4466,.8325l.0005-3.3246c.3395-.3341,.7704-.4793,1.2218-.5575,1.5709-.2722,3.0968-.7141,4.6265-1.1539,.5654-.1625,1.2285-.5103,1.7375,.1839-.0528,1.3403,.1778,2.6895-.1396,4.0196Z" fill="#fff"/>
  <path d="M32.1589,159.5629c4.2615-2.1121,8.8543-3.5561,12.8095-6.2819,2.2297-1.5366,4.2585-3.3387,6.2297-5.1835,1.9424-1.8179,3.7345-3.7965,5.5924-5.7046,.1078,.7766-.0891,1.3962-.6913,1.9738-2.8474,2.7312-5.4643,5.7059-8.6269,8.1023-3.3331,2.5257-6.9589,4.5564-10.8033,6.1668-1.2264,.5137-2.0661,1.7311-3.4988,1.7984-.4738-.1319-.7916-.4447-1.0113-.8714Z" fill="#fff"/>
  <path d="M49.3118,166.7976c2.2124-2.0366,4.3791-4.1259,6.6492-6.096,2.5901-2.2479,5.2522-4.4152,8.0989-6.3415,.3166-.2143,.5131-.5259,.5045-.9322,.835,0,1.67,0,2.505,.0001,.1808,.5425-.2979,.7245-.5814,.9534-2.0542,1.6589-4.1739,3.2341-6.27,4.8401-3.118,2.0217-5.601,4.7536-8.2413,7.3144-.737,.7148-1.318,1.801-2.6348,1.6193-.0101-.4525-.0202-.905-.0303-1.3575Z" fill="#fff"/>
  <path d="M39.0778,160.9366c1.3445-1.2755,3.0789-1.9516,4.6145-2.9274,3.3136-2.1058,6.198-4.7311,9.2264-7.1827,.9258-.7494,1.653-1.7243,2.6686-2.3931,1.0691-.704,1.4407-1.7413,1.2024-2.9969,.0781-.4476-.1168-.9334,.1879-1.3494,.2987,1.1543-.3247,2.4049,.3677,3.5179,.0445,.599-.4233,.8871-.7672,1.242-4.1331,4.2645-8.7963,7.8817-13.685,11.2266-.3675,.2515-.8577,.382-1.0443,.8623-.9237,.0002-1.8474,.0004-2.771,.0006Z" fill="#fff"/>
  <path d="M67.4323,148.2395c-1.5676,1.5683-3.1352,3.1365-4.7027,4.7048-3.0804,2.4944-6.064,5.1034-9.0774,7.6775-3.4241,2.852-6.8448,5.7071-10.0199,8.8413-.3547,.3501-.6838,.7642-1.256,.7717-.2146-.047-.3536-.1787-.4296-.3817-.0189-1.1962,.95-1.7117,1.6918-2.3307,2.4822-2.0717,4.7977-4.3251,7.1913-6.4928,3.3516-2.7102,6.4246-5.7444,9.8733-8.3512,1.7463-1.32,3.2764-2.9356,5.1271-4.1392,.4665-.3034,.9562-.8133,1.6022-.2996Z" fill="#fff"/>
  <path d="M29.0924,138.5328c-.736-.7457-1.472-1.4913-2.208-2.237-.3386-.4623-.0446-.8059,.2704-1.064,1.4988-1.2282,2.8524-2.5945,4.0669-4.1035,.2041-.2536,.4825-.43,.8448-.3589,.9023,.7597,1.8169,1.507,2.4931,2.4928-.0388,.4753-.2358,.9018-.5826,1.1989-1.6098,1.379-3.0454,2.9684-4.8847,4.0716Z" fill="#fff"/>
  <path d="M66.2182,175.6607c-.829-.8389-1.6579-1.6778-2.4869-2.5167-.0128-.0436-.0511-.1047-.0348-.1284,1.3827-2.015,2.8212-3.9745,5.1812-4.9683,.22-.0927,.4454-.0591,.6274,.1216,.8562,.7454,1.7546,1.4505,2.3378,2.4557-1.0717,1.1202-2.6096,1.6306-3.6423,2.8134-.6525,.7473-1.1341,1.6502-1.9824,2.2227Z" fill="#fff"/>
  <path d="M70.1161,138.7475c-.2428,.9275-.951,1.5452-1.511,2.2598-2.0201,2.5775-4.3341,4.871-6.798,7.0195-2.1364,1.863-4.268,3.7314-6.4012,5.5981-1.5561,1.3617-3.105,2.7319-4.6724,4.0806-.3127,.2691-.6966,.4524-1.1303,.4754,.5265-1.3318,1.989-1.654,2.8619-2.651,.9248-1.0562,2.2052-1.7918,3.2115-2.7875,3.2989-3.2641,6.9582-6.1641,9.8801-9.811,1.1039-1.3778,1.1549-3.1908,2.0446-4.6468,.8959-.1589,1.7592-.1411,2.5147,.4627Z" fill="#fff"/>
  <path d="M43.5104,153.2142c-2.5886,1.1128-5.1429,2.2942-7.8776,3.055-1.4229,.3959-2.8555,.6043-4.3019,.8038,.1001-2.2823,1.5687-3.7221,3.888-3.7629,2.7635-.0486,5.5276-.0654,8.2914-.0959Z" fill="#fff"/>
  <path d="M56.7876,184.2247c-2.1584,.3555-4.184,1.2638-6.3642,1.5286-.3605,.0438-.7209,.0889-1.0813,.1334,.0001-.9235,.0003-1.8471,.0004-2.7706,2.2036-1.1332,4.5343-1.9683,6.8242-2.8985,.2582-.1049,.5463-.0675,.7427,.1946,.0566,.3867,.0218,.775,.0312,1.1629-.0857,.8817,.1847,1.7832-.1529,2.6496Z" fill="#fff"/>
  <path d="M80.9422,154.0092c-.6169,.2317-.8349,.8327-1.1801,1.3052-1.333,1.8246-2.337,3.9487-4.6039,4.9047-.2535,.1069-.3315,.4271-.3438,.7167-1.4766-.0002-2.9532-.0004-4.4297-.0006-.087-.8414,.5832-1.1152,1.1427-1.3206,2.6085-.9576,4.2689-2.8741,5.5137-5.2477,.2308-.4401,.4304-.9262,1.0135-1.0264,.4973,.0422,1.0095-.1179,1.4913,.1149,.5494-.027,1.0074,.1764,1.3964,.5537Z" fill="#fff"/>
  <path d="M49.3419,125.2111c2.5969-.0368,4.9644-1.101,7.4442-1.6622,.3411,1.0405,.0742,2.1091,.1461,3.1611-.1069,.3617-.4192,.4845-.7287,.5478-2.024,.4138-3.9885,1.0344-5.9504,1.6679-.3077,.0994-.6325,.1261-.9109-.1131-.0001-1.2005-.0003-2.401-.0004-3.6016Z" fill="#fff"/>
  <path d="M49.3423,128.8126c2.4656-.7052,4.8415-1.7546,7.4425-1.9403,.3338,.8387,.074,1.7126,.1521,2.5655-.0197,.0907-.038,.2218-.1023,.2422-2.3939,.7591-4.5816,2.0276-6.9635,2.8137-.1763,.0582-.3615,.0063-.5285-.0819-.0001-1.1997-.0003-2.3994-.0004-3.5991Z" fill="#fff"/>
  <path d="M67.4323,148.2395c-1.1986,.0619-2.0455,.886-2.8527,1.5643-2.4397,2.0501-4.9918,3.973-7.3753,6.07-2.0534,1.8066-4.1116,3.6068-6.2159,5.3548-.9803,.5969-1.5379,1.7243-2.6795,2.126-.2181,.0767-.4085,.2053-.6452,.0905,.1838-1.354,1.5345-1.6418,2.3338-2.3657,3.1516-2.8547,6.5289-5.4587,9.7183-8.2737,1.8567-1.6388,3.8228-3.1367,5.6937-4.7525,1.4064-1.2146,2.9891-2.1008,4.7902-2.5826-.8422,1.0031-1.7669,1.9239-2.7673,2.7689Z" fill="#fff"/>
  <path d="M42.1228,169.8174c.0924,.0923,.1847,.1847,.2771,.2771-.251,1.4276-1.0625,2.6322-1.5744,3.9561-.1752,.453-.5984,.8048-.5507,1.3491-1.235,1.3872-2.5402,2.7042-3.9342,3.9325-.1156-.7507-.1139-1.5457-.3762-2.2412-.3323-.8807-.0705-1.57,.3403-2.2865,.5542-.6465,1.1084-1.2929,1.6626-1.9394,.8546-1.0818,1.9427-1.902,3.0531-2.6914,.317-.2253,.6367-.5459,1.1024-.3563Z" fill="#fff"/>
  <path d="M32.0665,130.7694c-1.612,1.6702-3.0324,3.5322-4.9387,4.9105-.1508,.109-.1655,.4062-.2435,.616-1.5626-1.6474-1.5971-3.8625-.0842-5.4075,1.52-1.5522,3.6076-1.5994,5.2663-.119Z" fill="#fff"/>
  <path d="M66.2182,175.6607c1.2381-2.39,3.138-4.0407,5.6247-5.0361,1.0051,1.8857,.7806,3.6737-.6201,4.9397-1.3635,1.2322-3.265,1.2689-5.0045,.0964Z" fill="#fff"/>
  <path d="M64.012,160.9365c.2181-.4296,.5953-.6665,.999-.9066,2.6637-1.584,5.2527-3.268,7.4397-5.5043,.3335-.3411,.4485-.6632,.3912-1.096,0-.0001,.0053,.022,.0053,.022,.7324-.2453,1.4874-.0546,2.2281-.1151,.7791,.3435,.2765,.8532,.0914,1.2196-.7653,1.5143-1.9389,2.6965-3.2978,3.6765-1.4971,1.0797-3.097,1.9962-4.8093,2.7029-1.0159,.0003-2.0318,.0007-3.0478,.001Z" fill="#fff"/>
  <path d="M29.0924,138.5328c.7952-1.2663,2.1274-1.9744,3.1811-2.9682,.7897-.7448,1.5816-1.4761,2.2861-2.3024,.6129,.6943,1.504,1.1045,1.9795,1.9391-.5574,1.5366-1.8515,2.4743-2.9614,3.5391-.7201,.6909-1.4991,1.3333-2.2601,1.9877-.8186-.6538-1.5695-1.3763-2.2251-2.1953Z" fill="#fff"/>
  <path d="M67.0597,160.9355c1.0201-1.0911,2.4442-1.5545,3.6661-2.3305,2.0224-1.2845,3.6125-2.9178,4.6445-5.0845,.8307-.2875,1.6615-.2878,2.4922,.0002-1.0665,2.0323-2.1421,4.0332-4.1384,5.3806-.7063,.4767-1.5049,.6556-2.2181,1.0626-.4446,.2538-.8849,.4879-1.1213,.9714l-3.3249,.0003Z" fill="#fff"/>
  <path d="M60.1308,159.0121c2.3129-1.8613,4.6257-3.7227,6.9386-5.5841,.5501-.0002,1.1002-.0003,1.6502-.0004-.1348,1.021-1.0959,1.3442-1.74,1.8148-2.8391,2.0744-5.8836,3.8744-8.4869,6.2627-2.4653,2.2617-4.8781,4.5811-7.2964,6.8934-.6508,.6222-1.2377,1.3112-1.854,1.9695-.0001-.3693-.0003-.7386-.0004-1.1079,.6221-1.3448,1.905-2.0935,2.8948-3.086,2.5081-2.5152,5.0516-5.0081,7.8941-7.162Z" fill="#fff"/>
  <path d="M56.7882,180.3454c-1.951,.7924-3.8963,1.5994-5.8569,2.3673-.5049,.1977-1.0579,.2723-1.5889,.4035,0-.8312,0-1.6623,0-2.4934,.754-.6147,1.6906-.868,2.5469-1.2785,1.1887-.5699,2.4071-1.0749,3.4242-1.953,.41-.354,.8727-.6837,1.4843-.4476,.106,.1164,.1526,.2522,.1422,.409-.0809,.9971,.1715,2.0096-.1519,2.9928Z" fill="#fff"/>
  <path d="M56.7849,129.6421c.0001-.9232,.0002-1.8465,.0001-2.7697,.0003-1.1078,.0009-2.2156,.0013-3.3234,.0152-.1903,.0305-.3806,.046-.5705,.0714,.2139,.2052,.4277,.2048,.6411-.0084,4.149-.0326,8.2979-.0535,12.4473-.2773,.3163-.1307,.708-.1898,1.0629-2.3404,2.0358-4.4623,4.2992-6.7082,6.4333-.1945,.1849-.4389,.3387-.7417,.2083,0-.8303,0-1.6606,0-2.4909,1.7377-2.3528,3.8451-4.3148,6.3477-5.8209,.8084-.4865,.7841-1.152,.7367-1.8971-.0203-.6018-.0113-1.2021-.0149-1.8035-.0065-.7291-.1269-1.4778,.3715-2.1169Z" fill="#fff"/>
  <path d="M56.7849,129.6421l.0002,2.2169c-.2687,.3253-.5853,.5968-.9949,.7111-1.8861,.5261-3.5161,1.567-5.1793,2.5448-.3856,.2267-.7572,.555-1.2675,.3446-.0003-1.0159-.0005-2.0318-.0008-3.0477,2.1849-.7297,4.1018-2.1098,6.3716-2.6301,.3492-.08,.7134-.0947,1.0707-.1396Z" fill="#fff"/>
  <path d="M31.3175,140.7281c-.0019-.3501,.1623-.6288,.4232-.8325,1.7753-1.3858,3.3124-3.0137,4.7984-4.6944,.7129,.5681,1.3918,1.1696,1.8994,1.9388-.0481,.3887-.2629,.6893-.5596,.9113-1.7587,1.3161-3.1219,3.0759-4.9064,4.3617-.5517-.5617-1.1033-1.1233-1.655-1.685Z" fill="#fff"/>
  <path d="M56.7859,133.7958c.1667,.9482-.1127,1.5464-1.0399,2.066-2.1256,1.191-3.9197,2.8212-5.4103,4.7644-.2574,.3355-.5242,.6435-.9918,.6542,0-1.017-.0002-2.034-.0003-3.051,1.6606-2.1175,3.8271-3.5391,6.2836-4.5581,.4011-.1664,.8037-.2066,1.1587,.1245Z" fill="#fff"/>
  <path d="M69.505,168.1689c-1.329,.4172-2.4271,1.1015-3.2758,2.2765-.7125,.9863-1.6564,1.8054-2.4979,2.6986-.7352-.5585-1.382-1.2054-1.9406-1.9406,1.6925-1.9335,3.6034-3.6101,5.8093-4.9396,.7231,.5469,1.3581,1.1821,1.905,1.9052Z" fill="#fff"/>
  <path d="M56.7902,141.564c-1.8162,1.3991-3.1696,3.2534-4.7675,4.8676-2.2535,2.2766-4.6648,4.3602-7.2486,6.245-.356,.2597-.8343,.3519-1.256,.5216-.096-.1858-.192-.3715-.288-.5573-.1305-.322,.0497-.5556,.2789-.7003,1.9853-1.2529,3.6985-2.8551,5.5413-4.2904,.0757-.0166,.152-.0197,.2288-.0093,1.9883-2.357,4.1095-4.5915,6.2809-6.7783,.3145-.3167,.7053-.6221,1.2304-.4098-.0001,.3704-.0003,.7407-.0004,1.1111Z" fill="#fff"/>
  <path d="M56.7859,133.7958c-2.2004,.3805-3.9671,1.5805-5.6006,3.0073-.5881,.5137-1.079,1.1417-1.8417,1.4263,0-.9233,0-1.8466-.0001-2.7699,2.376-1.4166,4.7161-2.9073,7.4418-3.6005,0,.6456,.0003,1.2912,.0006,1.9368Z" fill="#fff"/>
  <path d="M49.3425,173.9732c1.1901-.5992,2.1104-1.5018,3.0469-2.4436,1.4218-1.4298,3.0239-2.6804,4.5494-4.007-.0872-.0927-.1745-.1855-.2617-.2782,.0999,.3835,.1998,.767,.2996,1.1504,.0001,1.1197,.0003,2.2394,.0005,3.3592-.0658,.008-.1315,.016-.197,.0247-.0436-.049-.0874-.0985-.132-.147-.2389-.3933-.0772-.905-.4254-1.4648-1.5073,1.4428-2.9547,2.816-4.3407,4.2607-.6931,.7225-1.2473,1.7566-2.5392,1.4851-.0002-.6465-.0003-1.2929-.0005-1.9394Z" fill="#fff"/>
  <path d="M32.9725,142.4131c.0383-.9758,1.015-1.1005,1.515-1.6581,1.196-1.334,2.5627-2.4876,3.9509-3.6148,.4869,.4497,1.0996,.77,1.4254,1.3855-.3173,.9741-1.1803,1.4965-1.8441,2.1709-1.1192,1.1369-2.299,2.2157-3.6546,3.0783-.5416-.3747-1.0064-.8281-1.3926-1.3618Z" fill="#fff"/>
  <path d="M49.3425,178.9603c0-.4618,.0001-.9236,.0002-1.3853,2.17-1.8707,4.5144-3.5402,6.487-5.6397,.2491-.2651,.5726-.4828,.9635-.1912l.0286,.0273c.2453,.7375,.0626,1.4973,.1169,2.2438-1.7746,2.142-3.7696,4.0026-6.4307,5.0061-.3934,.1483-.7938,.2786-1.1655-.0608Z" fill="#fff"/>
  <path d="M40.2748,175.3996c-.2223-.1228-.3826-.3053-.2317-.5495,.9347-1.5122,1.2399-3.3353,2.3568-4.7557,2.3198-2.089,4.6237-4.196,6.9654-6.2601,1.3404-1.1816,2.7422-2.2935,4.1164-3.4368,.3395,1.0058-.6137,1.198-1.0852,1.6535-2.2715,2.1939-4.7606,4.1566-6.9058,6.4859-.1252,.136-.213,.2999-.3203,.4494-.6934,1.1089-1.5958,2.0386-2.5134,2.9581-.3649,.3656-.2443,.8485-.2231,1.2985-.7197,.719-1.4394,1.4379-2.1591,2.1568Z" fill="#fff"/>
  <path d="M56.7932,171.744c-1.1466,.4543-1.7843,1.5066-2.6543,2.2826-1.4928,1.3315-2.9732,2.668-4.7961,3.5483,.0001-.5541,.0002-1.1082,.0003-1.6623,.7835-.1939,1.4307-.6524,1.9061-1.2564,1.1851-1.5058,2.7317-2.6409,4.0083-4.046,.3713-.4087,.7925-1.0421,1.2584-.8868,.5873,.1957,.2001,.9618,.2847,1.4724,.0294,.1775-.0031,.3652-.0073,.5482Z" fill="#fff"/>
  <path d="M49.3425,178.9603c2.5039-.3415,4.1546-2.0879,5.947-3.6045,.474-.4011,.7685-1.0507,1.4988-1.1056,.2534,.9187,.2401,1.8381,.0071,2.758-1.5096,.4724-2.4971,1.8413-4.0184,2.3135-1.1683,.3626-2.1466,1.2409-3.4345,1.3009,0-.5541,0-1.1082,0-1.6624Z" fill="#fff"/>
  <path d="M45.1704,168.9862c.5797-1.8271,2.1973-2.7196,3.5418-3.8214,1.5536-1.2731,2.7768-2.8977,4.4365-4.0515,.1867-.1298,.2255-.4721,.333-.7159,2.6766-2.2783,5.1851-4.7546,8.0481-6.8147,.378-.272,.7429-.5313,1.1997-.6384-.0401,.1983,.0088,.3633,.1802,.4825-2.0026,1.6609-4.0711,3.2494-5.992,4.9999-2.774,2.5279-5.7647,4.8122-8.3646,7.5383-1.04,1.0905-2.25,2.0189-3.3826,3.0211Z" fill="#fff"/>
  <path d="M49.3438,143.7714c1.5739-1.5328,3.1513-3.062,4.7202-4.5998,.8198-.8035,1.7129-1.5044,2.7299-2.0418-.0008,.5543-.0015,1.1086-.0022,1.6628-.8688,1.1789-1.8138,2.2805-2.9981,3.1661-.8824,.6598-1.5471,1.5375-2.2788,2.3528-.606,.6752-1.0432,1.649-2.1712,1.6763,0-.7387,.0002-1.4775,.0002-2.2163Z" fill="#fff"/>
  <path d="M34.3651,143.7749c1.6679-1.9227,3.7207-3.442,5.4987-5.2493,.5447,.3787,1.0108,.8361,1.385,1.3853-.7461,1.4135-1.9276,2.4501-3.2008,3.3156-.8375,.5693-1.4067,1.6-2.5748,1.656-.4558-.2827-.8248-.6522-1.1081-1.1076Z" fill="#fff"/>
  <path d="M57.3512,166.7919c1.8153-1.7789,3.5812-3.6145,5.7445-4.993,.4671,.4564,1.1151,.732,1.3851,1.3855-.3915,.8412-1.2614,1.1834-1.9293,1.6818-1.3596,1.0144-2.3031,2.4911-3.8151,3.3115-.4617-.4619-.9234-.9239-1.3851-1.3858Z" fill="#fff"/>
  <path d="M38.7969,148.2074c-.376-.3665-.7519-.7329-1.1279-1.0993,.0822-.4603,.4395-.7024,.7949-.8977,1.9116-1.0501,3.4488-2.5649,5.0424-4.0113,.5744,.325,.9893,.8132,1.369,1.3375,.137,.4298-.1511,.6968-.3912,.9664-1.3628,1.5306-2.9367,2.7886-4.7936,3.6767-.2954,.1413-.5872,.2929-.8937,.0277Z" fill="#fff"/>
  <path d="M67.6,166.2638c-.0047,.0454,.0084,.1123-.0167,.1332-1.9289,1.6045-3.8609,3.2053-5.7926,4.8064-.3595-.1937-.6359-.4705-.8299-.8297-.2563-.3068-.1344-.5967,.0549-.869,1.3037-1.8758,3.1255-3.1259,5.0943-4.1938,.2125-.1153,.4374-.0941,.624,.0878,.3695,.2075,.6577,.4962,.866,.8651Z" fill="#fff"/>
  <path d="M43.5063,142.1991c-.7931,1.3507-1.9005,2.3793-3.2247,3.2-.8843,.548-1.7427,1.1379-2.6127,1.709-.564-.3578-.9762-.8642-1.3643-1.3942,2.2545-1.259,4.0375-3.1324,6.0803-4.6673,.543,.2195,.7126,.8024,1.1213,1.1525Z" fill="#fff"/>
  <path d="M42.385,141.0466c-1.7157,1.961-3.4716,3.8697-6.0803,4.6673-.3606-.1936-.6379-.4707-.8315-.8314,2.007-1.5621,3.9678-3.178,5.7756-4.9716,.4624,.2948,.8409,.6737,1.1362,1.1357Z" fill="#fff"/>
  <path d="M38.7969,148.2074c2.4615-.9903,4.4201-2.6351,6.0784-4.6708,.4588,.2827,.8215,.6615,1.1125,1.1121,.286,.314,.1614,.6555-.082,.8521-1.6223,1.3107-2.8384,3.1542-4.966,3.8068-.35,.1074-.6874,.2898-1.0355,.0085-.4538-.285-.8253-.6522-1.1074-1.1088Z" fill="#fff"/>
  <path d="M49.3435,145.9876c.8644-.684,1.5788-1.5023,2.2982-2.3392,1.5416-1.7933,3.3972-3.2747,5.1501-4.856-.0004,.5535-.0006,1.107-.001,1.6605-1.3917,.7044-2.3205,1.9102-3.313,3.049-1.2946,1.4855-2.6311,2.9297-4.1984,4.139,.0214-.5511,.0428-1.1022,.0642-1.6534Z" fill="#fff"/>
  <path d="M58.7363,168.1777c1.6538-1.9648,3.4789-3.7324,5.7445-4.9933,.3409,.3978,.9417,.5357,1.1079,1.1082-.0425,.2388-.1694,.435-.3704,.5535-1.7581,1.0354-3.1444,2.4999-4.5634,3.9282-.2244,.2259-.4568,.4551-.802,.4914-.4444-.2885-.8281-.6392-1.1164-1.0879Z" fill="#fff"/>
  <path d="M42.1209,151.5323c-.3761-.3662-.7522-.7324-1.1283-1.0987,.047-.183,.1406-.3484,.3021-.437,1.7689-.9708,3.2317-2.3412,4.7635-3.6228,.3079-.2576,.5932-.5766,1.0363-.6172,.5354,.2209,.7166,.7831,1.1044,1.1463,.09,.3636-.0973,.6442-.3479,.8342-1.56,1.182-2.9935,2.5256-4.6167,3.625-.327,.2215-.6835,.5054-1.1134,.1703Z" fill="#fff"/>
  <path d="M59.8527,169.2656c1.649-1.961,3.445-3.7525,5.7359-4.973,.3605,.3908,.926,.5692,1.1454,1.1061-2.32,1.1992-4.5291,2.5271-5.7732,4.975-.4551-.2836-.8239-.6536-1.1081-1.1081Z" fill="#fff"/>
  <path d="M47.0945,145.7566c-1.8404,1.8116-3.7055,3.591-6.102,4.677-.4486-.2888-.7998-.6725-1.0882-1.1174,2.6453-.7509,4.4581-2.587,6.0835-4.6675,.4572,.2811,.8189,.6575,1.1067,1.1079Z" fill="#fff"/>
  <path d="M42.1209,151.5323c2.3237-1.1522,4.1366-2.9752,6.078-4.6294,.3907,.1274,.6052,.4556,.8516,.7474-1.2101,1.8951-3.1674,2.9307-4.8889,4.2352-.3198,.2424-.767,.3213-.9313,.7556-.4553-.284-.8267-.652-1.1094-1.1087Z" fill="#fff"/>
  <path d="M60.1308,159.0121c-.4853,.7365-1.0999,1.3733-1.8207,1.8496-.849,.561-1.4809,1.3314-2.2225,1.979-2.343,2.0461-4.4064,4.377-6.7456,6.4194,0-.3684,.0001-.7368,.0002-1.1051,1.5377-.6951,2.4586-2.0994,3.6776-3.1612,2.3349-2.0337,4.246-4.5793,7.1111-5.9817Z" fill="#fff"/>
  <path d="M56.7876,184.2247c.0141-.9237,.0282-1.8473,.0422-2.771,.0489-.0001,.0979-.0002,.1468-.0003-.0003,2.6677-.0005,5.3354-.0008,8.003-.2686-.3234-.1269-.7181-.1874-1.0776-.0004-1.3847-.0006-2.7694-.0008-4.1541Z" fill="#fff"/>
  <path d="M77.8625,153.5207c-.8307-.0003-1.6615-.0006-2.4922-.0006-.841-.0226-1.6819-.0456-2.523-.0685,2.233-.2324,4.4659-.243,6.6985,.0039-.5612,.0217-1.1223,.0435-1.6834,.0652Z" fill="#fff"/>
  <path d="M56.7954,177.0083c-.0022-.9193-.0045-1.8387-.0069-2.758,.0109-.8264,.022-1.6528,.0332-2.4791,.0516-.0089,.1035-.0147,.1557-.0172,0,1.7538,.0001,3.5077,.0002,5.2615-.0516,.0066-.1032,.0133-.1548,.0199l-.0273-.0272Z" fill="#fff"/>
  <path d="M56.8226,177.0355c.0513-.0091,.1029-.0157,.1548-.0199-.0003,1.4792-.0006,2.9585-.0008,4.4378,0,0-.0737,.0003-.0737,.0003,0,0-.0737,0-.0734,0-.0135-.3695-.0272-.7389-.0412-1.1084,.0113-1.1033,.0228-2.2066,.0343-3.3099Z" fill="#fff"/>
  <path d="M143.8222,113.8091c-23.7137-.6113-42.6604,19.4957-43.1399,42.0948-.5049,23.7998,18.89,44.2283,43.0769,44.251,23.2751,.0217,43.2271-19.2147,43.2737-43.1497,.0479-24.6185-20.541-43.8635-43.2107-43.1961Zm14.9113,71.8355c-18.1602,9.3358-41.9965,.4622-46.4474-22.4403-.4142-2.1317-.4438-4.3054-.5074-5.6171,.0339-9.73,2.9741-17.4438,9.2695-23.8074,6.3951-6.4643,14.2028-9.2582,23.209-9.2598,15.2802-.0027,25.9325,10.2307,29.5998,20.831,5.1622,14.9211,.6208,32.1998-15.1235,40.2936Z" fill="#fff"/>
  <path d="M264.2017,144.9104c-5.7788-5.5034-12.8028-7.6002-20.6539-7.3511-11.8131,.3746-20.7751,5.554-26.4555,15.974-3.4296,6.2912-4.14,13.1644-3.1741,20.1644,1.4725,10.672,6.9584,18.5966,16.7615,23.2982,6.4002,3.0696,13.2142,3.5795,20.1459,2.6984,8.4498-1.0741,15.1882-5.0974,20.1343-12.0827,.5472-.7729,.5843-1.1437-.33-1.6288-2.3202-1.2313-4.6027-2.5377-6.8574-3.8858-.7642-.4569-1.1545-.3662-1.6451,.3693-2.6161,3.9215-6.337,6.2433-10.896,7.2206-2.9016,.6221-5.8336,.6699-8.8055,.3908-8.798-.8264-15.5736-6.4605-17.8428-14.9875q-.413-1.552,1.245-1.5541c7.7557-.0008,15.5115-.0004,23.2673-.0004,7.8481,0,15.6963-.0206,23.5441,.0246,1.0435,.006,1.4255-.2688,1.5178-1.332,.925-10.6616-2.1339-19.869-9.9556-27.3178Zm-1.5369,19.5994c-6.2274-.0005-12.4548-.0003-18.6821-.0003-6.1351,0-12.2704-.025-18.4052,.0236-1.0769,.0085-1.3673-.2551-1.1265-1.3206,3.9367-17.4136,23.374-19.0934,32.0626-12.0291,3.9925,3.2462,6.119,7.506,7.1581,12.4341,.2195,1.0409-.4087,.8923-1.0069,.8923Z" fill="#fff"/>
  <path d="M42.1228,169.8174c-1.3852,1.0159-2.7703,2.0318-4.1555,3.0476,.1179-1.2934,1.383-1.7839,1.9392-2.7706,1.1138-1.7472,3.1127-2.4936,4.4834-3.9768,.9467-1.0244,2.1726-1.7908,3.2737-2.6725,1.3086-.4382,2.0661-1.7032,3.3247-2.2165-.7665,1.0461-1.7921,1.8069-2.7698,2.6394-2.0077,1.7096-3.9183,3.5338-5.8526,5.3283-.1468,.1361-.165,.4108-.243,.6211Z" fill="#fff"/>
</svg>